<svg id="dartsec_logo_group" data-name="dartsec logo group" xmlns="http://www.w3.org/2000/svg" viewBox="0 0 1077.16 158.46"><defs><style>.cls-1{fill:#6b3c86;}.cls-2{fill:#a67cb7;}.cls-3{fill:#131313;}</style></defs><g id="Logo_mark" data-name="Logo mark"><polygon class="cls-1" points="0 0 79.14 0 190.1 158.46 110.96 158.46 0 0"/><path class="cls-2" d="M166.72,498.9h79.15l47.43,67.74a116.54,116.54,0,0,1,7.38,14.89c3,7.64,21,49.54-23,75.83Z" transform="translate(-67.84 -498.9)"/></g><g id="logo_type" data-name="logo type"><path class="cls-3" d="M408.38,524.4a53.66,53.66,0,0,1,41.05,88.39c-.92,1.08-2,2.16-3.08,3.23a52.8,52.8,0,0,1-37.81,15.84H354.73V524.25ZM373.8,612.79h34.58a34.59,34.59,0,1,0,0-69.17H373.8Z" transform="translate(-67.84 -498.9)"/><path class="cls-3" d="M568,631.86H546.42l-9.83-19.22-23.53-46.12-23.51,46.12-9.84,19.22H458.19L468,612.64l45-88.39,45.05,88.39Z" transform="translate(-67.84 -498.9)"/><path class="cls-3" d="M664,612.79,673.86,632H652.33l-9.83-19.22-10.3-20.13-.47-.93a19,19,0,0,0-16.29-9.22H596.22V632H577V524.4H645a28.81,28.81,0,0,1,20.45,8.46,29.2,29.2,0,0,1-8.45,47,25.57,25.57,0,0,1-8.31,2.3ZM645,563.29a8.89,8.89,0,0,0,4-.92,9.75,9.75,0,0,0,5.84-8.91,10.15,10.15,0,0,0-2.92-7.08,9.67,9.67,0,0,0-6.92-2.76H596.22v19.83Z" transform="translate(-67.84 -498.9)"/><path class="cls-3" d="M791.76,524.4v19.22H747.64V632H728.42V543.62H684.3V524.4Z" transform="translate(-67.84 -498.9)"/><path class="cls-3" d="M889.83,554.07v-.61a9.91,9.91,0,0,0-9.84-9.84H836.33a9.91,9.91,0,0,0-9.84,9.84v.61a9.91,9.91,0,0,0,9.84,9.84h38.74A33.74,33.74,0,0,1,900.13,575c.46.46.77.92,1.23,1.38a34,34,0,0,1-26.29,55.5H841.4a34,34,0,0,1-34-34h19.22a14.76,14.76,0,0,0,14.75,14.76h33.67a14.76,14.76,0,1,0,0-29.51H836.33A28.76,28.76,0,0,1,816.19,575a27.64,27.64,0,0,1-3.69-4.61,28.65,28.65,0,0,1-5.07-16.45v-.62a29,29,0,0,1,28.9-29H880a29.13,29.13,0,0,1,29,29v.62Z" transform="translate(-67.84 -498.9)"/><path class="cls-3" d="M943.63,553.3v10h69.17v19.22H943.63V602.8a9.9,9.9,0,0,0,9.83,9.84H1032v19.22H953.46a29,29,0,0,1-28.9-29.06V553.3a29,29,0,0,1,28.9-29H1032v19.21H953.46A9.9,9.9,0,0,0,943.63,553.3Z" transform="translate(-67.84 -498.9)"/><path class="cls-3" d="M1056.61,578.05a34.64,34.64,0,0,0,34.59,34.59H1145v19.22h-53.8a53.81,53.81,0,1,1,0-107.61H1145v19.21h-53.8A34.64,34.64,0,0,0,1056.61,578.05Z" transform="translate(-67.84 -498.9)"/></g></svg>